<?xml version="1.0" encoding="UTF-8" standalone="no"?>
<svg width="268px" height="168px" viewBox="0 0 268 168" version="1.1" xmlns="http://www.w3.org/2000/svg" xmlns:xlink="http://www.w3.org/1999/xlink" xmlns:sketch="http://www.bohemiancoding.com/sketch/ns">
    <!-- Generator: Sketch 3.4.2 (15855) - http://www.bohemiancoding.com/sketch -->
    <title>open</title>
    <desc>Created with Sketch.</desc>
    <defs></defs>
    <g id="Page-1" stroke="none" stroke-width="1" fill="none" fill-rule="evenodd" sketch:type="MSPage">
        <g id="Group" sketch:type="MSLayerGroup" transform="translate(-465.000000, -14.000000)" fill="#979797">
            <g transform="translate(10.000000, 0.000000)" id="Path-1-Copy-4-+-Path-1-Copy-3-+-Path-3-Copy-+-Mask-Copy-Copy" sketch:type="MSShapeGroup">
                <g transform="translate(455.000000, 14.000000)">
                    <g id="open">
                        <path d="M32.1370997,108 C32.3392839,108.245089 32.5436484,108.491576 32.7501893,108.739425 C39.4231078,116.746928 47.139701,124.72961 55.881007,132.222158 C81.7358804,154.383478 111.238344,168 144,168 C176.761656,168 206.26412,154.383478 232.118993,132.222158 C240.860299,124.72961 248.576892,116.746928 255.249811,108.739425 C257.61082,105.906214 259.687443,103.25086 261.47384,100.83058 C262.124489,99.9490564 262.699396,99.1487853 263.197699,98.4369242 C263.533969,97.9565389 263.791448,97.5794429 263.969207,97.3128046 C269.343598,89.2512187 269.343598,78.748781 263.969207,70.6871951 C263.791448,70.4205568 263.533969,70.0434608 263.197699,69.5630754 C262.699396,68.8512144 262.124489,68.0509433 261.47384,67.1694197 C259.687443,64.7491396 257.61082,62.0937858 255.249811,59.2605743 C248.576892,51.2530721 240.860299,43.2703895 232.118993,35.7778415 C206.26412,13.6165215 176.761657,7.10542736e-15 144.000001,0 C111.238344,-7.10542736e-15 81.7358807,13.6165215 55.8810072,35.7778414 C47.1397011,43.2703894 39.4231079,51.253072 32.7501893,59.2605742 C32.5436484,59.5084234 32.3392838,59.7549114 32.1370995,60 L24,60 C10.745166,60 0,70.745166 0,84 C0,97.254834 10.745166,108 24,108 L32.1370954,108 Z M100,84.5 C100,59.9233286 119.923329,40 144.5,40 C169.076671,40 189,59.9233286 189,84.5 C189,109.076671 169.076671,129 144.5,129 C119.923329,129 100,109.076671 100,84.5 Z"></path>
                    </g>
                </g>
            </g>
        </g>
    </g>
</svg>